# xmcd
#
# Track frame offsets:
#   150
#   16617
#   30767
#   45940
#   52147
#   61972
#   75752
#   86242
#   99817
#   111830
#   122320
#   137005
#
# Disc length: 1989 seconds
#
# Revision: 0
# Processed by: cddbd v1.5PL3 Copyright (c) Steve Scherf et al.
# Submitted via: uFREEDB ActiveX Control 1.5
#
DISCID=7b07c30c
DTITLE=Roberto Corrêa - um pequeno concerto
DYEAR=1900
DGENRE=Country
TTITLE0=tristeza do jeca
TTITLE1=araponga isprivitada
TTITLE2=tocata da bachianas nº 2
TTITLE3=lacuticho
TTITLE4=siriema
TTITLE5=boiada cuiabana
TTITLE6=jararaca chateadera
TTITLE7=chico mineiro
TTITLE8=pagode em brasília
TTITLE9=requenquem
TTITLE10=saudades de matão
TTITLE11=antiviola
EXTD=
EXTT0=
EXTT1=
EXTT2=
EXTT3=
EXTT4=
EXTT5=
EXTT6=
EXTT7=
EXTT8=
EXTT9=
EXTT10=
EXTT11=
PLAYORDER=
